<?xml version="1.0" encoding="UTF-8"?> <svg xmlns="http://www.w3.org/2000/svg" width="1244" height="709" viewBox="0 0 1244 709" fill="none"> <path d="M627.034 709C508.559 709 398.353 650.254 332.19 551.798L355.229 536.307C416.206 627.084 517.814 681.235 626.969 681.235C712.823 681.235 793.951 648.219 855.388 588.292L874.751 608.18C808.194 673.162 720.174 709 627.034 709Z" fill="#163E6C"></path> <path d="M901.666 179.453C841.214 84.4756 737.966 27.7647 625.463 27.7647C513.026 27.7647 409.778 84.4756 349.26 179.453L325.827 164.553C391.465 61.5024 503.443 0 625.463 0C747.483 0 859.461 61.5024 925.099 164.553L901.666 179.453Z" fill="#163E6C"></path> <path d="M873.638 682.83L842.461 618.702L776.101 589.624L925.689 533.11L873.638 682.83Z" fill="#163E6C"></path> <path d="M97.6031 233.47L0 486.437H391.528L490.182 233.47H97.6031Z" fill="#D20A11"></path> <path d="M750.563 233.47L652.96 486.437H1145.37L1243.96 233.47H750.563Z" fill="#D20A11"></path> <path d="M489.132 233.47L391.529 486.437H653.423L752.076 233.47H489.132Z" fill="#163E6C"></path> <path d="M833.79 409.485C837.855 409.485 841.326 408.984 844.202 407.984C847.142 406.921 849.549 405.514 851.425 403.763C853.301 401.949 854.677 399.885 855.553 397.572C856.428 395.195 856.866 392.694 856.866 390.067C856.866 383.438 854.646 378.592 850.206 375.528C845.828 372.401 839.012 370.837 829.757 370.837H817.281V357.33L839.794 329.095L848.424 321.215L834.728 322.341H805.555V301.047H877.034V314.743L852.926 345.323L842.139 353.39L850.487 353.109C854.802 353.546 858.867 354.609 862.682 356.298C866.496 357.924 869.842 360.206 872.719 363.146C875.658 366.085 877.972 369.712 879.66 374.027C881.349 378.279 882.193 383.22 882.193 388.848C882.193 395.977 881.005 402.199 878.628 407.515C876.252 412.768 872.938 417.114 868.685 420.553C864.433 423.993 859.367 426.557 853.489 428.245C847.611 429.934 841.169 430.778 834.165 430.778C831.351 430.778 828.412 430.653 825.348 430.403C822.284 430.153 819.251 429.778 816.249 429.277C813.31 428.839 810.527 428.245 807.9 427.495C805.336 426.745 803.116 425.9 801.24 424.962L808.182 403.95C811.621 405.451 815.436 406.764 819.626 407.89C823.816 408.953 828.537 409.485 833.79 409.485ZM983.501 387.722C983.501 393.35 982.5 398.76 980.499 403.95C978.561 409.141 975.747 413.737 972.057 417.739C968.367 421.679 963.834 424.837 958.455 427.214C953.14 429.59 947.105 430.778 940.351 430.778C933.597 430.778 927.531 429.684 922.153 427.495C916.838 425.306 912.304 422.148 908.552 418.021C904.862 413.831 902.017 408.765 900.016 402.825C898.015 396.821 897.014 390.036 897.014 382.469C897.014 370.775 898.796 360.081 902.361 350.388C905.925 340.695 910.803 332.253 916.994 325.061C923.185 317.807 930.502 311.929 938.944 307.426C947.387 302.924 956.486 299.984 966.241 298.609L971.494 318.307C964.177 319.808 957.705 321.872 952.077 324.498C946.511 327.062 941.727 330.158 937.725 333.785C933.723 337.35 930.471 341.414 927.969 345.979C925.468 350.482 923.686 355.36 922.622 360.613C924.123 359.049 925.718 357.58 927.406 356.204C929.157 354.828 930.971 353.64 932.847 352.64C934.786 351.639 936.818 350.857 938.944 350.294C941.133 349.669 943.384 349.356 945.698 349.356C951.764 349.356 957.142 350.294 961.832 352.171C966.523 354.047 970.462 356.673 973.652 360.05C976.904 363.427 979.342 367.492 980.968 372.245C982.657 376.935 983.501 382.094 983.501 387.722ZM958.831 389.973C958.831 383.532 957.33 378.717 954.328 375.528C951.389 372.276 946.605 370.65 939.976 370.65C937.6 370.65 935.442 370.994 933.504 371.682C931.565 372.37 929.814 373.245 928.251 374.308C926.75 375.371 925.437 376.56 924.311 377.873C923.248 379.123 922.404 380.312 921.778 381.437C921.528 382.751 921.403 383.751 921.403 384.439C921.403 385.064 921.403 385.815 921.403 386.69C921.403 389.442 921.684 392.193 922.247 394.945C922.873 397.634 923.936 400.073 925.437 402.262C926.937 404.388 928.907 406.139 931.346 407.515C933.848 408.828 936.974 409.485 940.727 409.485C943.791 409.485 946.449 408.984 948.7 407.984C950.951 406.921 952.827 405.514 954.328 403.763C955.829 401.949 956.955 399.854 957.705 397.478C958.455 395.101 958.831 392.6 958.831 389.973ZM1025.71 408.265C1029.9 408.265 1033.53 407.734 1036.59 406.671C1039.72 405.545 1042.25 404.044 1044.19 402.168C1046.19 400.229 1047.66 397.978 1048.6 395.414C1049.6 392.788 1050.1 389.942 1050.1 386.878C1050.1 380.312 1047.6 375.371 1042.6 372.057C1037.66 368.68 1030.12 367.242 1019.99 367.742L1004.23 368.492V301.047H1069.33V324.686H1026.37V347.293L1034.62 346.449C1041 346.699 1046.72 347.856 1051.79 349.919C1056.86 351.92 1061.14 354.672 1064.64 358.174C1068.21 361.676 1070.93 365.897 1072.8 370.837C1074.68 375.778 1075.62 381.281 1075.62 387.347C1075.62 394.539 1074.4 400.855 1071.96 406.295C1069.58 411.673 1066.2 416.176 1061.83 419.803C1057.51 423.43 1052.32 426.182 1046.26 428.058C1040.19 429.871 1033.47 430.778 1026.09 430.778C1020.08 430.778 1014.55 430.215 1009.48 429.09C1004.42 428.027 1000.07 426.713 996.446 425.15L1003.39 403.95C1004.89 404.513 1006.39 405.045 1007.89 405.545C1009.45 406.045 1011.11 406.514 1012.86 406.952C1014.61 407.327 1016.52 407.64 1018.58 407.89C1020.71 408.14 1023.09 408.265 1025.71 408.265Z" fill="#EBE5D6"></path> <path d="M546.188 428.245L585.867 336.974L593.934 324.123L580.051 325.061H539.059V301.047H622.732V308.177L571.14 428.245H546.188Z" fill="#EBE5D6"></path> <path d="M214.06 332.566C214.06 339.194 212.872 345.729 210.496 352.171C208.119 358.549 205.118 364.709 201.49 370.65C197.863 376.528 193.924 382.094 189.671 387.347C185.419 392.537 181.416 397.259 177.664 401.511L167.44 409.109V409.766L181.416 406.952H214.342V428.245H136.953V415.582C141.394 411.83 145.74 407.89 149.992 403.763C154.245 399.573 158.247 395.289 161.999 390.911C165.814 386.471 169.284 382 172.411 377.498C175.601 372.932 178.321 368.43 180.572 363.99C182.886 359.55 184.668 355.204 185.919 350.951C187.232 346.636 187.889 342.509 187.889 338.569C187.889 333.253 186.357 329.032 183.293 325.905C180.228 322.716 176.007 321.121 170.629 321.121C166.314 321.121 162.374 321.966 158.81 323.654C155.245 325.343 151.774 327.625 148.398 330.502L137.892 312.304C143.77 307.926 149.805 304.55 155.996 302.173C162.249 299.797 169.097 298.609 176.539 298.609C181.667 298.609 186.513 299.328 191.078 300.766C195.643 302.142 199.614 304.268 202.991 307.145C206.431 309.959 209.12 313.492 211.058 317.745C213.06 321.997 214.06 326.937 214.06 332.566ZM323.06 393.163H307.113V428.245H283.194V393.163H230.007V378.998L286.008 300.203H307.113V373.464H323.06V393.163ZM283.194 347.293L283.569 332.566L277.002 345.417L261.525 366.992L254.771 374.121L265.934 373.464H283.194V347.293Z" fill="#EBE5D6"></path> </svg> 